<?xml version="1.0" standalone="yes"?>
<svg xmlns="http://www.w3.org/2000/svg" width="117" height="115">
<path style="fill:#f4f9f8; stroke:none;" d="M0 0L0 115L117 115L117 0L0 0z"/>
<path style="fill:#8cbfc1; stroke:none;" d="M55 56L55 18C55 14.12 56.4071 6.61394 53.3966 3.60339C48.9311 -0.862137 39.6363 2.92503 34.9606 4.79861C20.7915 10.4764 7.61543 22.9037 3.48997 38C2.34965 42.1728 0.310517 49.836 3.6034 53.4861C6.84777 57.0824 13.6862 56 18 56L55 56M65.0586 2.85802C60.4459 4.89537 61.0019 9.75615 61 14L61 43C61 46.1215 59.9543 51.7786 62.0278 54.3966C64.261 57.2163 70.8492 56 74 56L99 56C103.137 55.9997 108.097 56.5492 111.852 54.4275C118.645 50.5889 113.514 37.2596 111.099 32C105.511 19.8305 94.8396 11.2545 83.0895 5.38966C78.2243 2.96124 70.368 0.512955 65.0586 2.85802z"/>
<path style="fill:#4f6266; stroke:none;" d="M72 15C70.5065 18.5987 69.5027 21.5162 73 24C72.1238 16.1529 78.27 17.589 84 19C81.845 22.0168 78.4271 24.6124 76.9429 28.0394C73.7724 35.36 82.0822 39.9319 88 41C86.8137 42.1863 86.4721 42.5838 86 44C79.6759 38.3055 73.2258 35.342 73 26C69.029 31.3252 73.6592 35.3527 76.4606 39.9992C78.8916 44.0313 77.1688 46.3134 73 47L73 49L87 48C84.5174 46.5774 82.823 46.5662 80 47C80.3148 44.3733 80.1237 43.3997 79 41C85.0625 44.8092 86.626 43.7171 93 42C91.6935 37.5914 89.0211 34.081 87 30C88.1863 31.1863 88.5279 31.5838 89 33C89.8497 29.9105 88.5353 27.7439 87 25L83 25C85.5788 21.2656 85.2744 19.2407 84 15C79.9151 15.1641 76.084 15.4318 72 15M42 47L41 43C54.2673 39.8345 47.9647 23.2782 37 21.2785C30.5791 20.1075 15.5663 27.2343 21.0316 35.6821C22.4804 37.9214 25.4733 37.9324 27.7145 38.8758C32.8201 41.0249 36.8717 45.4794 42 47M77.3333 21.6667C77.2778 21.7222 77.2222 22.7778 77.6667 22.3333C77.7222 22.2778 77.7778 21.2222 77.3333 21.6667z"/>
<path style="fill:#8cbfc1; stroke:none;" d="M88 40C86.1031 36.5039 83.9875 35.087 80 35L79 30L85 28C80.8305 26.3185 75.6438 28.8327 78.4529 33.8927C80.3834 37.3701 84.4664 38.8087 88 40M86 29L87 30L86 29M84 30C84.6836 31.58 84.8048 31.7772 86 33C85.3164 31.42 85.1952 31.2228 84 30M87.3333 34.6667C87.2778 34.7222 87.2222 35.7778 87.6667 35.3333C87.7222 35.2778 87.7778 34.2222 87.3333 34.6667M89 38L89 40L91 40C90.4549 38.3648 90.6352 38.5451 89 38M55 60L16 60C12.3094 60 5.43135 58.7159 3.02778 62.3179C-0.048805 66.9284 2.98965 74.4829 4.68441 79C10.0338 93.2576 19.7572 104.347 34 110.42C38.3381 112.269 47.9771 116.062 52.4275 112.971C56.2913 110.289 55 103.016 55 99L55 60M61 60L61 99C61.0016 103.262 60.2781 110.216 64.419 112.972C69.1061 116.093 76.6018 112.802 81 110.766C94.853 104.354 104.468 95.837 111.243 82C113.599 77.1884 117.771 67.3625 113.397 62.5139C110.152 58.9176 103.314 60 99 60L61 60z"/>
<path style="fill:#4f6266; stroke:none;" d="M29 68L30 74C23.9839 67.6335 20.3051 69.9635 13 73L13 75C18.6652 77.3999 22.2432 76.1819 28 75C23.8858 77.8383 22.1811 81.231 28 83L26 79C28.0924 78.5943 28.0198 78.7833 29 77L30 81L32 81C34.6978 71.7281 44.1518 80.3085 49 73C45.5675 71.7532 41.0468 68.305 37.2608 69.642C35.2584 70.3491 33.5882 72.6571 32 74L33 68L29 68M71 77L69 88L100 88C99.7773 85.1818 99.6858 81.8013 98.436 79.2099C93.3548 68.6746 78.5933 74.1479 71 77M34 77C34.8807 78.7295 35.2575 78.8887 37 80C33.3716 81.4077 22.9235 84.4897 29 89C30.2183 84.9747 44.2018 78.7078 34 77z"/>
<path style="fill:#8cbfc1; stroke:none;" d="M73 86C77.2019 85.483 80.0227 85.4895 84 87C82.9045 80.6909 76.0886 81.344 73 86M85 87C89.3041 85.3654 92.4746 85.6463 97 86C92.7321 82.0283 87.3319 80.6584 85 87z"/>
<path style="fill:#4f6266; stroke:none;" d="M34 85C31.8365 88.0432 29.3012 90.4675 28 94C31.6986 91.5448 34.724 89.3503 36 85L34 85M33 91C32.0643 92.9486 31.6076 93.5502 30 95C33.1647 95.6723 34.5718 93.7762 33 91z"/>
</svg>
